<svg xmlns="http://www.w3.org/2000/svg" width="189" height="40" viewBox="0 0 189 40" fill="none"><g clip-path="url(#clip0_4_620)"><path d="M32.2924 18.8562C35.799 18.8562 38.3412 17.587 38.3412 14.0804C38.2911 10.7281 35.799 9.50526 32.2924 9.50526H29.2449V18.8562H32.2924ZM47.8426 13.876C47.8426 22.3127 40.9798 27.752 33.6619 27.752H29.241V39.186H19.5853V0.813965H33.6619C40.9798 0.813965 47.8426 5.89449 47.8426 13.876ZM49.6248 0.763815H59.3307V39.186H49.6248V0.763815ZM61.4678 19.9248C61.4678 6.40756 70.7185 0 79.9691 0C91.0483 0 96.8425 7.72688 97.8069 13.7718L88.915 16.4645C88.2052 13.5674 86.3728 8.99219 79.919 8.99219C76.1578 8.99219 70.8728 11.9896 70.8728 19.9209C70.8728 27.2389 75.853 30.6953 80.2237 30.6953C86.477 30.6953 88.8147 25.5608 89.0655 23.3774L98.266 25.7151C97.452 31.0502 92.5721 39.9961 80.1736 39.9961C70.3134 39.9961 61.4717 33.3378 61.4717 19.9209M100.044 39.186V0.813965H109.7V15.3997L121.798 0.813965H134.3L120.17 17.7876L134.146 39.186H122.507L113.562 25.1596L109.75 29.43L109.7 39.1899H100.044V39.186ZM158.391 29.9354V39.186H136.029V0.813965H145.684V29.9354H158.391ZM178.875 14.0766C178.825 10.7243 176.029 9.5014 173.081 9.5014H170.03V18.9565H173.081C176.183 18.9565 178.875 17.5832 178.875 14.0766ZM160.374 0.813965H174.455C181.823 0.813965 188.481 5.89449 188.481 13.876C188.481 19.0607 185.889 23.2771 182.282 25.5647L188.99 39.186H178.366L173.232 27.4472H170.03V39.186H160.374V0.813965ZM3.91552 27.7751V31.4244H16.9814V35.5328H3.91552V39.1822H0V27.7712H3.91552V27.7751ZM0 13.2202H16.9814V17.3286H10.5082V22.4593H16.9814V26.5677H0V22.4593H6.56958V17.3286H0V13.2202ZM3.86537 7.68444H6.66602V0.813965H10.2421V7.68444H13.089V0.813965H16.9814V11.6231H0V0.813965H3.86537V7.68444Z" fill="white"></path></g><defs><clipPath id="clip0_4_620"><rect width="188.986" height="40" fill="white"></rect></clipPath></defs></svg>